<?xml version="1.0" standalone="no"?>
<!DOCTYPE svg PUBLIC "-//W3C//DTD SVG 20010904//EN"
 "http://www.w3.org/TR/2001/REC-SVG-20010904/DTD/svg10.dtd">
<svg version="1.0" xmlns="http://www.w3.org/2000/svg"
 width="1265.000000pt" height="1581.000000pt" viewBox="0 0 1265.000000 1581.000000"
 preserveAspectRatio="xMidYMid meet">
<metadata>
Created by potrace 1.15, written by Peter Selinger 2001-2017
</metadata>
<g transform="translate(0.000000,1581.000000) scale(0.100000,-0.100000)"
fill="#000000" stroke="none">
<path d="M6009 15090 c-8 -5 -23 -7 -35 -4 -18 5 -68 -5 -179 -35 -16 -4 -56
-24 -87 -44 l-57 -37 -148 13 c-84 8 -155 10 -165 5 -9 -4 -32 -8 -50 -8 -34
0 -131 -40 -142 -59 -4 -6 -16 -11 -27 -11 -10 0 -19 -5 -19 -10 0 -6 -10 -15
-22 -20 -13 -6 -43 -23 -68 -38 -60 -38 -195 -83 -390 -131 -106 -26 -100 -24
-130 -41 -14 -8 -29 -15 -35 -15 -17 -1 -74 -38 -69 -46 2 -4 -1 -11 -7 -15
-8 -4 -9 -3 -5 4 11 17 -2 15 -32 -7 -15 -10 -37 -22 -50 -26 -36 -11 -20 -16
16 -5 20 5 30 5 27 -1 -4 -5 -12 -9 -19 -9 -7 0 -23 -13 -35 -29 -14 -18 -39
-33 -66 -41 -25 -7 -50 -19 -57 -28 -11 -13 -10 -14 10 -3 13 7 31 11 40 9 18
-4 19 -2 -86 -95 -20 -18 -45 -33 -54 -33 -25 0 -49 -11 -43 -20 3 -4 -2 -13
-10 -20 -7 -6 -12 -17 -9 -24 3 -8 -8 -18 -26 -26 -18 -8 -27 -16 -20 -20 7
-4 -3 -21 -27 -47 -21 -21 -32 -31 -24 -21 27 34 -3 18 -52 -29 -110 -106
-138 -135 -134 -140 3 -2 20 11 38 29 50 49 124 105 113 85 -5 -9 -25 -28 -44
-42 -19 -14 -29 -25 -22 -25 20 0 2 -28 -23 -34 -12 -3 -25 -15 -28 -26 -3
-14 -10 -18 -21 -14 -9 4 -16 2 -14 -3 3 -10 -64 -73 -78 -73 -12 -1 -74 -84
-74 -98 0 -7 -9 -17 -20 -24 -21 -14 -28 -34 -7 -22 6 4 -1 -7 -17 -24 -16
-17 -32 -31 -35 -30 -26 3 -31 -3 -16 -18 15 -15 14 -19 -10 -44 -15 -16 -27
-32 -26 -37 1 -4 -2 -8 -6 -9 -24 -2 -63 -29 -59 -41 7 -16 -64 -124 -101
-154 -15 -12 -20 -19 -10 -16 26 10 21 -6 -21 -54 -67 -78 -122 -151 -122
-163 0 -6 6 -2 12 9 15 27 68 88 68 78 0 -8 -51 -87 -70 -110 -6 -7 -10 -14
-9 -15 5 -8 -14 -48 -22 -48 -6 0 -7 6 -4 13 4 6 0 3 -9 -7 -14 -17 -14 -20 2
-33 9 -7 13 -12 7 -11 -5 1 -27 -15 -48 -35 -27 -27 -33 -37 -20 -35 10 2 23
10 30 18 23 28 13 -5 -13 -44 -26 -38 -39 -86 -23 -86 5 0 9 5 9 10 0 6 4 10
9 10 5 0 7 -9 4 -20 -3 -11 -9 -20 -13 -20 -5 0 -13 -14 -19 -31 -15 -42 -13
-50 3 -20 13 23 13 20 11 -30 -2 -30 -10 -85 -19 -124 -18 -76 -35 -202 -34
-250 0 -16 6 3 14 44 22 122 34 139 29 41 -3 -59 -2 -75 4 -52 15 58 21 48 22
-39 1 -62 3 -74 8 -44 6 38 7 39 14 13 4 -15 3 -38 -3 -53 -13 -35 -13 -54 1
-35 8 12 9 10 5 -10 -3 -14 -13 -81 -21 -150 -16 -126 -31 -197 -47 -214 -19
-23 -6 -28 14 -6 l23 24 6 -39 c4 -22 10 -71 14 -109 4 -39 10 -64 15 -57 4 8
9 -4 13 -30 3 -23 10 -45 15 -48 13 -8 24 -58 25 -112 1 -31 6 -45 13 -42 18
7 25 -13 14 -41 -5 -14 -6 -26 -1 -26 10 0 10 -32 0 -40 -3 -3 -9 -23 -12 -45
-4 -24 -3 -32 2 -20 7 17 8 17 15 -8 3 -16 3 -33 0 -39 -4 -7 -8 -33 -10 -59
-1 -37 1 -46 12 -42 10 4 14 -4 14 -32 0 -20 -4 -44 -9 -53 -4 -9 -11 -33 -15
-52 -6 -32 -5 -33 8 -15 14 18 15 18 16 3 0 -10 -9 -22 -20 -28 -27 -14 -27
-44 0 -35 18 6 20 2 20 -34 0 -22 -4 -51 -10 -66 -9 -24 -8 -25 10 -15 24 13
26 0 9 -49 -7 -21 -8 -35 -1 -44 5 -6 12 -21 15 -32 4 -18 5 -18 6 3 0 13 11
33 22 45 l21 22 -8 -25 c-10 -32 -6 -173 7 -273 7 -51 47 -188 115 -392 57
-173 104 -328 104 -345 0 -21 4 -29 12 -24 8 5 9 0 6 -14 -4 -12 -2 -20 2 -17
15 9 21 -14 10 -35 -8 -16 -8 -20 4 -20 17 0 29 -27 16 -35 -16 -10 -11 -23
10 -30 20 -6 29 -45 10 -45 -7 0 -7 -6 -1 -17 6 -10 20 -49 32 -88 12 -38 31
-78 41 -90 36 -37 55 -88 52 -140 l-2 -50 24 30 c20 25 26 28 34 15 13 -19 3
-83 -21 -139 -21 -48 -20 -66 1 -26 7 14 17 25 22 25 4 0 9 10 9 23 1 15 3 17
6 5 2 -9 -4 -33 -13 -55 -9 -21 -18 -40 -18 -43 -1 -3 -5 -11 -10 -19 -7 -11
-12 -9 -22 10 -12 23 -13 22 -8 -12 5 -28 1 -41 -20 -66 -14 -17 -26 -36 -26
-42 0 -6 -4 -11 -10 -11 -5 0 -10 -6 -10 -12 0 -7 20 10 43 37 l44 49 19 -22
c23 -28 25 -91 3 -112 -8 -8 -18 -23 -22 -33 -6 -16 -4 -16 23 3 l30 21 0 -24
c0 -14 6 -28 13 -30 7 -3 5 -6 -5 -6 -10 -1 -18 -8 -18 -16 0 -9 6 -12 15 -9
8 4 15 2 15 -4 0 -13 -29 -24 -42 -16 -5 3 -4 -3 3 -14 12 -19 45 -35 74 -36
24 -2 57 -56 34 -56 -4 0 -9 -7 -12 -14 -4 -10 -1 -13 9 -9 7 3 14 1 14 -3 -1
-15 -27 -44 -40 -44 -7 0 -10 -7 -6 -16 3 -9 6 -21 6 -27 0 -8 3 -8 8 1 6 9
12 5 22 -13 8 -16 19 -24 28 -20 9 3 12 0 9 -7 -19 -47 -18 -52 8 -23 l26 30
-5 -40 c-4 -26 -3 -31 2 -16 8 25 32 41 32 22 0 -6 6 -8 14 -5 9 3 17 -3 21
-15 3 -11 12 -18 20 -15 23 9 27 -15 8 -49 -13 -21 -27 -32 -44 -34 -14 -1
-65 -20 -112 -43 -106 -50 -174 -116 -237 -227 -128 -229 -344 -524 -511 -698
-32 -33 -71 -77 -86 -98 -23 -31 -49 -47 -141 -87 -131 -57 -215 -102 -330
-179 -173 -116 -251 -163 -372 -227 -223 -118 -383 -206 -492 -270 -59 -35
-149 -84 -199 -110 -51 -25 -146 -78 -213 -118 -106 -63 -231 -126 -250 -126
-12 0 -891 -442 -907 -456 -8 -8 -19 -14 -23 -14 -4 0 -21 -9 -37 -21 l-29
-20 0 -2765 0 -2764 6240 0 6240 0 0 33 c0 18 5 38 12 45 9 9 9 12 0 12 -7 0
-12 9 -12 20 0 11 5 20 10 20 6 0 10 18 10 40 0 22 -4 40 -10 40 -5 0 -10 -18
-10 -40 0 -40 -13 -53 -24 -25 -3 8 -17 15 -31 15 -15 0 -25 6 -25 14 0 7 -7
19 -15 26 -14 12 -13 16 6 36 25 27 18 49 -12 34 -11 -6 -19 -21 -19 -35 0
-18 -5 -25 -20 -25 -15 0 -20 7 -20 29 0 17 5 33 10 36 15 9 2 25 -15 18 -12
-4 -15 4 -15 37 0 31 4 41 13 37 10 -4 13 8 10 50 -3 43 0 58 13 68 13 9 14
14 4 20 -7 4 -16 2 -20 -5 -5 -8 -9 -5 -13 9 -3 14 0 21 9 21 8 0 14 9 14 19
0 14 -5 18 -20 14 -11 -3 -20 0 -20 6 0 6 7 11 15 11 24 0 17 28 -7 33 l-23 4
23 2 c28 1 29 27 1 36 -13 4 -18 12 -15 22 8 21 -12 54 -32 52 -9 -1 -34 -1
-54 0 l-38 1 0 63 c0 37 -5 68 -12 75 -10 10 -10 15 2 22 13 9 13 11 1 19 -21
14 -26 63 -7 73 32 18 17 31 -26 24 -26 -4 -38 -3 -30 2 8 6 -6 7 -37 4 l-51
-5 0 42 c0 39 -2 41 -30 41 -28 0 -30 2 -30 40 0 22 5 40 10 40 6 0 10 33 10
80 0 72 -2 80 -19 80 -11 0 -22 -6 -24 -12 -4 -10 -6 -10 -6 0 -1 7 11 17 26
23 l28 10 -24 18 -24 18 24 8 c20 7 16 9 -23 12 -27 2 -48 8 -48 14 0 13 -55
69 -69 69 -6 0 -11 17 -11 40 0 22 5 40 10 40 6 0 10 17 10 38 0 21 4 42 9 47
5 6 11 21 14 35 4 21 4 20 6 -7 1 -30 4 -33 31 -33 20 0 30 5 30 15 0 9 9 15
25 15 16 0 25 6 25 15 0 8 -11 25 -25 37 -25 22 -33 52 -16 62 5 4 12 0 14 -6
3 -8 6 -6 6 5 1 12 -7 17 -24 17 -22 0 -25 4 -25 40 0 33 -3 40 -20 40 -16 0
-20 -7 -20 -37 l0 -37 -35 34 c-19 18 -33 35 -31 37 2 3 17 5 33 5 34 1 62 33
44 51 -18 18 -13 25 17 29 l27 3 -27 26 c-33 31 -36 49 -8 49 11 0 20 4 20 10
0 5 -9 14 -20 20 -17 9 -20 8 -20 -10 0 -13 -7 -20 -20 -20 -24 0 -25 7 -5 53
18 44 18 47 4 47 -18 0 -59 49 -59 71 0 28 17 23 24 -7 6 -21 9 -24 21 -14 19
16 19 39 0 46 -11 5 -15 22 -15 65 0 32 -4 59 -9 59 -5 0 -12 10 -14 23 -2 12
-5 1 -6 -25 0 -28 -6 -48 -12 -48 -7 0 -9 10 -7 25 4 17 1 25 -9 25 -12 0 -14
11 -11 48 3 26 8 55 12 64 5 11 1 23 -13 37 -13 13 -21 34 -21 56 0 19 -4 35
-10 35 -5 0 -10 11 -10 24 0 22 -5 25 -42 29 l-43 4 43 1 c37 2 42 5 41 25 0
12 -3 16 -6 10 -7 -18 -43 -16 -43 2 0 9 -7 18 -15 21 -8 4 -15 12 -15 20 0 8
-4 14 -10 14 -5 0 -6 8 -3 17 4 11 8 12 11 5 6 -19 30 -14 37 8 8 24 -1 40
-21 40 -8 0 -14 5 -14 10 0 14 -27 12 -33 -2 -3 -7 -6 -8 -6 -3 -1 6 15 28 34
50 32 37 32 62 0 35 -9 -7 -22 -9 -32 -5 -15 7 -13 9 11 14 38 8 55 34 38 61
-6 11 -12 27 -12 35 0 8 -6 15 -14 15 -20 0 -24 18 -18 78 l5 52 39 0 c32 0
39 3 36 18 -2 12 -16 19 -43 22 -27 3 -41 10 -43 23 -3 13 3 17 25 17 22 1 17
5 -27 20 -30 11 -62 20 -72 20 -11 0 -18 7 -18 20 0 13 7 20 20 20 17 0 20 7
21 43 1 39 2 40 9 12 5 -21 7 -11 6 37 -1 47 -5 68 -13 68 -8 0 -13 -15 -13
-40 0 -22 -4 -40 -10 -40 -6 0 -10 37 -10 90 0 62 -5 100 -15 120 -15 28 -14
30 5 30 29 0 25 32 -5 47 -14 6 -25 7 -25 2 0 -15 -17 -10 -24 7 -4 9 -1 23 6
31 16 20 -7 35 -45 30 -15 -2 -30 0 -33 5 -7 11 44 31 76 30 15 0 19 2 10 5
-23 9 -38 34 -32 55 5 19 -5 23 -27 9 -8 -5 -12 -19 -9 -35 4 -22 2 -26 -18
-26 -17 0 -24 6 -24 20 0 11 7 20 15 20 8 0 15 9 15 20 0 15 7 20 25 20 23 0
25 4 25 40 0 33 -3 40 -20 40 -15 0 -20 -7 -20 -28 0 -31 -16 -52 -38 -52 -11
0 -13 9 -9 35 7 44 -21 122 -33 91 -6 -19 -8 -18 -31 5 l-24 24 48 3 47 3 0
38 c0 29 -7 44 -30 64 -16 15 -30 34 -30 43 0 11 -6 14 -21 9 -12 -4 -19 -3
-16 2 3 5 -1 22 -9 37 -7 16 -14 35 -14 42 0 8 -9 14 -21 14 -15 0 -20 6 -19
23 6 63 0 88 -22 96 -22 8 -21 8 3 16 22 8 21 8 -12 12 -32 4 -37 8 -48 42
-13 44 -41 64 -41 29 0 -17 -3 -19 -12 -10 -13 13 -15 19 -24 69 -4 19 -13 33
-25 36 -14 4 -19 14 -19 40 0 20 5 37 10 39 6 2 -12 26 -40 53 -27 28 -50 58
-50 67 0 9 -4 18 -8 20 -4 2 -23 22 -41 45 -19 23 -38 40 -42 37 -5 -3 -9 0
-9 5 0 6 5 11 10 11 17 0 11 26 -10 45 -11 10 -20 26 -20 36 0 10 -9 21 -20
24 -24 8 -26 21 -5 29 29 11 15 26 -23 26 -39 0 -72 23 -72 49 0 21 -54 111
-66 111 -6 0 -15 -10 -21 -22 -9 -21 -10 -20 -17 16 -7 36 -8 37 -22 20 -14
-17 -15 -16 -11 24 3 23 1 42 -4 42 -5 0 -9 -7 -9 -17 0 -30 -10 -7 -16 38 -3
24 -7 48 -8 54 0 5 -7 16 -13 23 -7 7 -13 29 -13 48 0 19 -4 34 -10 34 -5 0
-10 6 -10 13 0 8 -12 42 -26 78 -91 228 -200 393 -350 530 -74 67 -211 149
-236 141 -5 -1 -8 2 -8 8 0 5 -8 10 -18 10 -10 0 -32 14 -50 30 -34 30 -33 33
3 31 13 0 10 3 -9 11 -23 8 -31 8 -34 -1 -3 -9 -7 -9 -18 0 -12 10 -12 14 -2
21 10 6 7 10 -9 14 -27 8 -31 44 -5 45 10 0 12 3 5 6 -20 8 -15 29 12 49 30
23 32 34 5 34 -17 0 -20 7 -20 40 0 22 5 40 10 40 6 0 10 -12 10 -27 0 -19 3
-24 11 -16 8 8 7 18 -4 38 -9 18 -17 24 -21 16 -14 -23 -26 -10 -26 29 0 41 7
49 28 28 7 -7 12 -8 12 -2 0 5 -9 15 -20 22 -21 13 -27 46 -10 57 5 3 0 15
-11 26 -12 12 -18 27 -15 36 4 9 9 55 11 102 3 47 9 87 15 89 5 2 4 11 -3 23
-9 15 -9 23 1 39 6 11 12 38 12 60 0 33 3 40 20 40 17 0 19 4 13 28 -11 40 -6
81 12 98 17 18 20 34 5 34 -5 0 -10 24 -10 53 0 28 -4 67 -9 85 -9 30 -8 34
15 42 26 10 29 25 13 66 -15 40 -4 74 24 74 20 -1 21 -2 5 -14 -22 -16 -23
-42 -3 -50 11 -4 15 1 15 17 0 13 5 28 12 35 9 9 9 12 0 12 -7 0 -12 9 -12 19
0 11 -5 21 -12 23 -15 5 -11 110 5 120 9 6 9 12 0 28 -18 28 -16 50 5 50 16 0
20 19 36 148 23 199 27 222 37 222 5 0 9 -7 9 -15 0 -8 4 -15 9 -15 9 0 14 83
14 258 0 117 1 122 21 122 19 0 21 6 21 57 0 36 -5 58 -13 61 -6 2 -12 19 -12
39 0 26 -5 36 -20 40 -19 5 -29 43 -12 43 11 0 44 71 37 78 -3 4 -15 1 -25 -6
-23 -14 -22 -16 -22 62 0 29 -5 55 -14 63 -17 18 -18 43 -1 43 6 1 1 7 -12 14
l-24 14 28 14 28 15 -27 7 c-15 4 -24 11 -21 16 7 12 -16 80 -26 80 -5 0 -10
-17 -12 -37 -2 -21 -3 -15 -2 13 2 28 9 62 17 74 10 18 10 24 1 27 -7 3 -13
11 -13 19 0 8 -6 23 -12 34 -11 17 -10 22 2 30 13 9 13 12 -2 20 -15 9 -16 21
-11 75 4 47 3 65 -6 65 -8 0 -11 16 -10 48 1 27 -1 54 -5 60 -4 7 -3 19 2 29
7 12 5 21 -5 31 -9 10 -13 25 -9 43 3 15 1 29 -4 31 -5 2 -10 38 -12 80 -2 54
-7 78 -15 78 -17 0 -17 74 -1 100 11 17 10 22 -8 34 -19 13 -20 21 -13 73 7
53 2 85 -8 56 -3 -7 -8 -13 -12 -13 -11 0 -31 72 -31 112 0 27 -5 37 -20 41
-11 3 -18 1 -14 -4 3 -5 -2 -6 -10 -3 -8 3 -17 23 -21 45 -4 21 -11 37 -17 36
-6 -1 -16 14 -22 33 l-10 35 -4 -32 c-4 -43 -15 -42 -31 3 -10 27 -10 38 -2
44 18 10 3 37 -47 85 -32 31 -43 49 -39 64 3 14 1 18 -9 14 -20 -7 -72 49 -76
83 -2 25 -8 29 -35 32 -24 2 -33 8 -33 22 0 18 -64 90 -81 90 -5 0 -8 3 -8 8
1 4 1 24 0 45 -1 30 -5 37 -21 37 -11 0 -20 4 -20 8 0 5 -15 15 -33 24 -25 12
-36 26 -46 58 -7 22 -22 51 -34 63 -26 26 -47 63 -47 84 0 8 -4 11 -10 8 -6
-4 -9 12 -8 42 1 36 2 40 5 16 2 -18 8 -33 13 -33 9 0 3 70 -9 110 -5 14 -9
48 -9 75 -2 71 13 37 42 -100 14 -60 25 -96 25 -80 0 17 -8 64 -18 105 -11 41
-18 76 -16 78 1 2 13 -13 25 -33 12 -20 25 -34 27 -31 3 3 -5 18 -16 35 -12
17 -21 36 -20 43 3 17 -11 49 -20 44 -3 -2 -7 6 -8 17 0 12 -2 37 -4 55 -1 18
-5 35 -10 37 -4 3 -5 14 -2 25 5 18 7 18 34 5 15 -8 35 -15 44 -15 9 0 15 -6
14 -12 -3 -27 2 -36 22 -41 14 -4 18 -2 11 6 -5 7 -12 24 -16 40 -4 16 -13 27
-24 27 -9 1 -32 14 -50 29 -31 26 -32 29 -13 34 12 3 19 1 15 -4 -3 -5 1 -9 8
-9 7 0 24 -3 38 -6 l25 -5 -25 15 -25 15 27 1 c26 0 27 2 21 33 -3 17 -6 34
-6 37 -1 3 5 16 12 28 7 13 10 26 7 30 -3 3 -6 0 -6 -6 0 -7 -5 -12 -11 -12
-6 0 -9 7 -5 15 3 8 1 15 -4 15 -6 0 -10 7 -10 15 0 8 6 13 13 11 35 -11 71
-17 65 -10 -4 4 -3 13 3 21 9 10 8 13 -4 13 -15 0 -27 20 -27 44 0 7 10 22 21
35 15 16 24 20 32 12 17 -17 27 -13 21 7 -4 13 -1 12 14 -5 11 -13 28 -23 39
-23 14 0 9 8 -21 35 -26 22 -40 44 -42 65 -2 19 0 29 6 25 14 -9 12 10 -4 49
-7 18 -17 52 -21 75 -7 41 -51 121 -66 121 -5 0 -6 6 -3 14 3 8 -5 24 -18 36
-13 11 -24 27 -24 33 -1 7 -2 17 -3 23 0 7 -10 14 -22 17 -11 3 -23 15 -26 26
-3 11 -9 19 -13 16 -8 -5 -41 37 -64 85 l-17 35 35 -40 c19 -22 35 -46 36 -52
0 -7 5 -13 10 -13 13 0 13 0 -12 56 -11 27 -20 66 -20 88 1 22 -1 36 -5 33 -9
-10 -41 45 -35 61 3 8 12 10 25 6 18 -6 18 -4 6 11 -8 9 -27 30 -44 46 -21 21
-25 29 -13 29 13 0 13 6 -5 43 -12 23 -27 47 -35 53 -16 12 -25 64 -11 64 5 0
9 5 9 11 0 5 -6 7 -12 3 -10 -6 -10 -4 0 7 17 18 15 30 -3 23 -8 -4 -15 -1
-15 5 0 6 5 11 10 11 6 0 10 5 10 11 0 5 -3 8 -7 6 -5 -3 -9 32 -10 77 -2 70
-7 90 -33 136 -33 61 -38 62 -14 4 18 -43 27 -104 16 -104 -5 0 -12 3 -18 8
-5 4 -1 0 8 -10 20 -18 23 -54 8 -78 -8 -12 -10 -11 -10 7 0 12 -4 25 -10 28
-5 3 -10 16 -10 28 0 13 -9 40 -20 62 -26 51 -26 70 1 26 28 -47 35 -32 9 20
-17 33 -24 39 -32 28 -8 -11 -9 -10 -4 4 6 18 -11 63 -31 85 -18 19 -16 32 5
27 9 -3 4 1 -12 8 -16 8 -24 16 -17 18 7 3 -7 25 -34 54 -26 28 -51 60 -56 73
-5 12 -14 21 -20 20 -6 -2 -13 6 -15 16 -1 10 -8 22 -14 26 -9 5 -9 9 -1 11
12 4 3 49 -10 49 -5 0 -6 -8 -3 -17 6 -19 -40 29 -57 60 -14 24 -1 21 22 -5
10 -13 18 -18 19 -11 0 6 -16 24 -35 40 -20 15 -42 45 -49 66 -7 21 -17 38
-22 37 -5 0 -10 9 -10 21 -1 12 -14 32 -30 44 -16 13 -36 39 -44 59 -7 20 -20
36 -27 36 -7 0 -13 5 -13 11 0 5 4 8 9 4 6 -3 9 5 8 17 -2 26 -54 98 -70 98
-7 0 -7 -4 1 -12 15 -15 16 -31 1 -22 -6 3 -16 0 -21 -7 -7 -10 -8 -5 -3 14 5
24 0 34 -32 63 -20 19 -43 32 -49 30 -7 -3 -15 2 -18 10 -3 8 -15 14 -26 14
-11 0 -20 5 -20 11 0 7 10 9 25 5 33 -8 32 9 -2 31 -16 10 -35 25 -44 35 -9
10 -35 26 -58 36 -23 11 -48 28 -56 38 -12 15 -16 16 -24 5 -6 -9 -11 -10 -15
-2 -4 6 -16 11 -27 11 -10 0 -24 9 -31 20 -7 11 -18 20 -25 20 -7 0 -16 7 -21
15 -5 10 -33 20 -76 26 -73 10 -112 26 -138 58 -10 12 -25 21 -33 21 -8 0 -15
5 -15 10 0 6 -18 10 -41 10 -28 0 -38 4 -33 11 5 9 -1 10 -22 4 -26 -8 -46 -9
-101 -5 -42 3 -62 11 -66 28 -4 14 -5 14 -6 1 -2 -24 -51 -13 -51 12 0 10 -4
21 -10 24 -6 3 -10 -4 -10 -17 0 -22 -1 -21 -15 5 -8 16 -14 31 -13 35 4 12
-34 82 -43 82 -14 0 -10 -38 5 -47 18 -11 31 -53 16 -53 -6 0 -9 4 -5 9 3 6
-4 15 -15 21 -11 6 -20 18 -20 28 0 9 -7 26 -15 36 -17 22 -20 40 -6 31 5 -3
12 -2 15 3 7 12 -77 97 -113 113 -18 8 -29 19 -26 27 3 8 0 10 -6 6 -6 -4 -15
-1 -19 5 -8 13 -157 20 -204 9 -23 -6 -42 0 -89 28 -69 40 -137 66 -137 52 0
-5 -8 -7 -17 -4 -10 3 -31 2 -48 -3 l-30 -8 32 -7 c17 -4 50 -9 74 -11 54 -6
79 -14 79 -26 0 -5 9 -9 20 -9 27 0 25 -26 -5 -55 -26 -27 -49 -31 -91 -15
-30 12 -46 4 -24 -11 11 -7 3 -8 -25 -4 -55 9 -65 13 -65 25 0 8 12 9 33 5 31
-6 31 -5 -8 14 -22 11 -35 20 -30 21 20 2 -131 69 -157 70 -14 0 -28 4 -30 8
-5 13 -73 22 -89 12z m798 -124 c46 -24 98 -76 98 -98 0 -12 7 -23 15 -26 13
-5 13 -3 1 11 -7 10 -9 17 -3 17 12 0 52 -83 52 -110 0 -12 7 -20 16 -20 14 0
14 -3 4 -15 -7 -9 -19 -14 -27 -11 -8 3 -11 1 -8 -4 3 -6 -3 -10 -14 -10 -12
0 -21 -4 -21 -10 0 -5 -8 -10 -17 -10 -15 0 -16 2 -3 10 10 6 11 10 3 10 -7 0
-13 7 -13 15 0 10 -8 13 -27 11 -16 -2 -20 -1 -10 1 9 2 17 8 17 13 0 4 -10 6
-22 2 -21 -5 -22 -4 -8 13 14 17 13 18 -5 11 -40 -16 -55 -18 -55 -7 0 6 -6
11 -13 11 -8 0 -26 23 -41 50 -15 28 -24 50 -20 50 3 0 0 8 -7 17 -10 11 -10
14 -1 9 28 -17 9 14 -25 42 l-38 31 25 10 c31 14 110 7 147 -13z m-27 -5072
c0 -16 -16 -34 -31 -34 -10 0 -19 -4 -19 -9 0 -6 15 -5 36 1 20 5 39 7 42 3 9
-9 10 -105 2 -105 -4 0 -22 -3 -39 -6 -24 -5 -31 -3 -31 9 0 9 -4 19 -10 22
-6 4 -7 -1 -3 -11 6 -15 4 -15 -19 0 -13 9 -26 14 -29 12 -2 -2 -5 14 -6 36
-1 35 2 41 33 55 19 9 34 19 34 23 0 3 9 6 20 6 11 0 20 -1 20 -2z"/>
</g>
</svg>
